<svg xmlns="http://www.w3.org/2000/svg" width="373.25" height="291.781" viewBox="0 0 373.25 291.781">
  <metadata><?xpacket begin="﻿" id="W5M0MpCehiHzreSzNTczkc9d"?>
<x:xmpmeta xmlns:x="adobe:ns:meta/" x:xmptk="Adobe XMP Core 5.6-c142 79.160924, 2017/07/13-01:06:39        ">
   <rdf:RDF xmlns:rdf="http://www.w3.org/1999/02/22-rdf-syntax-ns#">
      <rdf:Description rdf:about=""/>
   </rdf:RDF>
</x:xmpmeta>
                                                                                                    
                                                                                                    
                                                                                                    
                                                                                                    
                                                                                                    
                                                                                                    
                                                                                                    
                                                                                                    
                                                                                                    
                                                                                                    
                                                                                                    
                                                                                                    
                                                                                                    
                                                                                                    
                                                                                                    
                                                                                                    
                                                                                                    
                                                                                                    
                                                                                                    
                                                                                                    
                           
<?xpacket end="w"?></metadata>
<defs>
    <style>
      .cls-1 {
        fill: #95c623;
        fill-rule: evenodd;
      }
    </style>
  </defs>
  <path id="Name_Johl" data-name="Name Johl" class="cls-1" d="M287,254c0.691,10.028,3.617,21.544-2,26l-3,2-5-3-3-24h-1l-53,10c0.92,27.4,1.749,60.12-16,69-30.03,15.023-51.863-24.98-52-49H141l-2-4a37.482,37.482,0,0,1,13-9c2.086-42.432,30.1-69.418,47-98q-3-29-6-58c-22.938,20.294-46.5,62.682-90,41,3.786,10.349,18.162,15.852,16,27h-5c-5.763-3.437-55.2-56.724-24-59,9.105,6.748,14.6,20,26,24,27.536,9.67,65.611-35.692,72-53,4.951-13.413-3.752-28.829,2-40l3-1,8,4c2.695,17.321,5.471,95.062,12,104,19.116-12.047,48.09-14.242,61,5l3-2c5.114-30.277-4.685-66.322,8-89l3-1c30.226,17.7-.411,82.855-1,112,8.509-7.312,12.151-13.723,27-10,9.862,19.5,2.917,60.287,18,75,20.969-.2,40.355-29.712,43-47q-4.5-15.5-9-31c-4.8-20.651-5.434-49.334-1-70l4-3h4c11.279,17.38,20.829,48.858,16,78q-2.5,12.5-5,25c4.561,23.427,26.876,51.99,45,63l24,11-1,2c-49.106.489-50.265-38.815-74-63-3.445,17.047-21.646,50.886-46,46-8.335-1.672-10.169-8.866-16-11Zm2-157q-0.5,20-1,40h1C290.069,125.562,295.805,105.778,289,97Zm83,15c-0.764,29.251,2.2,54.269,8,78h1C384.445,165.081,393.316,126.286,372,112ZM247,163c-14.3,5.345-25.06,4.081-34,14q1,8,2,16c19.141-7.659,39.408-2.36,51-17C262.462,166.9,257.1,165.714,247,163Zm40,84,27,1c-1.976-16.727,3.644-53.361-7-63C289.324,193.393,286.53,220.415,287,247Zm-18-61c-12.537,12.937-32.2,7.289-50,16v1q0.5,2,1,4C229.823,230.49,284.054,218.012,269,186Zm-70,7c-13.346,25.123-28.163,45.048-35,78l43-12v-1C203.67,243.984,206.382,201.053,199,193Zm76,20c-11.13,20.236-38.78,16.9-58,8q1,17.5,2,35l56-9V213Zm-69,55c-12.422,5.645-41.933,4.071-42,22,4.879,15.907,10.266,33.929,31,34l7-4C206.332,309.028,212.492,282.461,206,268Zm83,15c4.5,1.386,3.6.516,5,5-22.694,13.951-43.747,29.757-64,46l1,2c51.846,3.667,98.746-9.661,148-19,17.831-3.381,51.5-8.633,69-1-35.292,4.182-68.329,5.537-100,13-37.5,8.836-81.269,24.08-124,15l-5-6C224.084,313.69,272.48,299.427,289,283Z" transform="translate(-79.75 -55)"/>
</svg>
